<svg   height="24" viewBox="0 0 24 24" xmlns="http://www.w3.org/2000/svg">

<symbol id="twitter"  viewBox="0 0 512 512">
 <path  width="24" d="M459.4 151.7c.3 4.5 .3 9.1 .3 13.6 0 138.7-105.6 298.6-298.6 298.6-59.5 0-114.7-17.2-161.1-47.1 8.4 1 16.6 1.3 25.3 1.3 49.1 0 94.2-16.6 130.3-44.8-46.1-1-84.8-31.2-98.1-72.8 6.5 1 13 1.6 19.8 1.6 9.4 0 18.8-1.3 27.6-3.6-48.1-9.7-84.1-52-84.1-103v-1.3c14 7.8 30.2 12.7 47.4 13.3-28.3-18.8-46.8-51-46.8-87.4 0-19.5 5.2-37.4 14.3-53 51.7 63.7 129.3 105.3 216.4 109.8-1.6-7.8-2.6-15.9-2.6-24 0-57.8 46.8-104.9 104.9-104.9 30.2 0 57.5 12.7 76.7 33.1 23.7-4.5 46.5-13.3 66.6-25.3-7.8 24.4-24.4 44.8-46.1 57.8 21.1-2.3 41.6-8.1 60.4-16.2-14.3 20.8-32.2 39.3-52.6 54.3z"/>
</symbol>
<symbol id="messenger"  viewBox="0 0 512 512">
<path   width="24" d="M256.6 8C116.5 8 8 110.3 8 248.6c0 72.3 29.7 134.8 78.1 177.9 8.4 7.5 6.6 11.9 8.1 58.2A19.9 19.9 0 0 0 122 502.3c52.9-23.3 53.6-25.1 62.6-22.7C337.9 521.8 504 423.7 504 248.6 504 110.3 396.6 8 256.6 8zm149.2 185.1l-73 115.6a37.4 37.4 0 0 1 -53.9 9.9l-58.1-43.5a15 15 0 0 0 -18 0l-78.4 59.4c-10.5 7.9-24.2-4.6-17.1-15.7l73-115.6a37.4 37.4 0 0 1 53.9-9.9l58.1 43.5a15 15 0 0 0 18 0l78.4-59.4c10.4-8 24.1 4.5 17.1 15.6z"/>
</symbol>
<symbol id="telegram"  viewBox="0 0 496 512">
 <path d="M248 8C111 8 0 119 0 256S111 504 248 504 496 393 496 256 385 8 248 8zM363 176.7c-3.7 39.2-19.9 134.4-28.1 178.3-3.5 18.6-10.3 24.8-16.9 25.4-14.4 1.3-25.3-9.5-39.3-18.7-21.8-14.3-34.2-23.2-55.3-37.2-24.5-16.1-8.6-25 5.3-39.5 3.7-3.8 67.1-61.5 68.3-66.7 .2-.7 .3-3.1-1.2-4.4s-3.6-.8-5.1-.5q-3.3 .7-104.6 69.1-14.8 10.2-26.9 9.9c-8.9-.2-25.9-5-38.6-9.1-15.5-5-27.9-7.7-26.8-16.3q.8-6.7 18.5-13.7 108.4-47.2 144.6-62.3c68.9-28.6 83.2-33.6 92.5-33.8 2.1 0 6.6 .5 9.6 2.9a10.5 10.5 0 0 1 3.5 6.7A43.8 43.8 0 0 1 363 176.7z"/> 
</symbol>
<symbol id="youtube"  viewBox="0 0 576 512">
 <path d="M549.7 124.1c-6.3-23.7-24.8-42.3-48.3-48.6C458.8 64 288 64 288 64S117.2 64 74.6 75.5c-23.5 6.3-42 24.9-48.3 48.6-11.4 42.9-11.4 132.3-11.4 132.3s0 89.4 11.4 132.3c6.3 23.7 24.8 41.5 48.3 47.8C117.2 448 288 448 288 448s170.8 0 213.4-11.5c23.5-6.3 42-24.2 48.3-47.8 11.4-42.9 11.4-132.3 11.4-132.3s0-89.4-11.4-132.3zm-317.5 213.5V175.2l142.7 81.2-142.7 81.2z"/> 
</symbol>
 
<symbol id="x"  viewBox="0 0 512 512">
 <path d="M389.2 48h70.6L305.6 224.2 487 464H345L233.7 318.6 106.5 464H35.8L200.7 275.5 26.8 48H172.4L272.9 180.9 389.2 48zM364.4 421.8h39.1L151.1 88h-42L364.4 421.8z"/>
</symbol>


<symbol id="facebook-f"  viewBox="0 0 320 512">
<path d="M80 299.3V512H196V299.3h86.5l18-97.8H196V166.9c0-51.7 20.3-71.5 72.7-71.5c16.3 0 29.4 .4 37 1.2V7.9C291.4 4 256.4 0 236.2 0C129.3 0 80 50.5 80 159.4v42.1H14v97.8H80z"/>
</symbol>
<symbol id="whatsapp"  viewBox="0 0 448 512">
 <path d="M380.9 97.1C339 55.1 283.2 32 223.9 32c-122.4 0-222 99.6-222 222 0 39.1 10.2 77.3 29.6 111L0 480l117.7-30.9c32.4 17.7 68.9 27 106.1 27h.1c122.3 0 224.1-99.6 224.1-222 0-59.3-25.2-115-67.1-157zm-157 341.6c-33.2 0-65.7-8.9-94-25.7l-6.7-4-69.8 18.3L72 359.2l-4.4-7c-18.5-29.4-28.2-63.3-28.2-98.2 0-101.7 82.8-184.5 184.6-184.5 49.3 0 95.6 19.2 130.4 54.1 34.8 34.9 56.2 81.2 56.1 130.5 0 101.8-84.9 184.6-186.6 184.6zm101.2-138.2c-5.5-2.8-32.8-16.2-37.9-18-5.1-1.9-8.8-2.8-12.5 2.8-3.7 5.6-14.3 18-17.6 21.8-3.2 3.7-6.5 4.2-12 1.4-32.6-16.3-54-29.1-75.5-66-5.7-9.8 5.7-9.1 16.3-30.3 1.8-3.7 .9-6.9-.5-9.7-1.4-2.8-12.5-30.1-17.1-41.2-4.5-10.8-9.1-9.3-12.5-9.5-3.2-.2-6.9-.2-10.6-.2-3.7 0-9.7 1.4-14.8 6.9-5.1 5.6-19.4 19-19.4 46.3 0 27.3 19.9 53.7 22.6 57.4 2.8 3.7 39.1 59.7 94.8 83.8 35.2 15.2 49 16.5 66.6 13.9 10.7-1.6 32.8-13.4 37.4-26.4 4.6-13 4.6-24.1 3.2-26.4-1.3-2.5-5-3.9-10.5-6.6z"/>
</symbol>

<symbol id="email"  viewBox="0 0 512 512">
<path d="M256 64C150 64 64 150 64 256s86 192 192 192c17.7 0 32 14.3 32 32s-14.3 32-32 32C114.6 512 0 397.4 0 256S114.6 0 256 0S512 114.6 512 256v32c0 53-43 96-96 96c-29.3 0-55.6-13.2-73.2-33.9C320 371.1 289.5 384 256 384c-70.7 0-128-57.3-128-128s57.3-128 128-128c27.9 0 53.7 8.9 74.7 24.1c5.7-5 13.1-8.1 21.3-8.1c17.7 0 32 14.3 32 32v80 32c0 17.7 14.3 32 32 32s32-14.3 32-32V256c0-106-86-192-192-192zm64 192a64 64 0 1 0 -128 0 64 64 0 1 0 128 0z"/>
</symbol>

<symbol id="instagram"  viewBox="0 0 448 512">
 <path d="M224.1 141c-63.6 0-114.9 51.3-114.9 114.9s51.3 114.9 114.9 114.9S339 319.5 339 255.9 287.7 141 224.1 141zm0 189.6c-41.1 0-74.7-33.5-74.7-74.7s33.5-74.7 74.7-74.7 74.7 33.5 74.7 74.7-33.6 74.7-74.7 74.7zm146.4-194.3c0 14.9-12 26.8-26.8 26.8-14.9 0-26.8-12-26.8-26.8s12-26.8 26.8-26.8 26.8 12 26.8 26.8zm76.1 27.2c-1.7-35.9-9.9-67.7-36.2-93.9-26.2-26.2-58-34.4-93.9-36.2-37-2.1-147.9-2.1-184.9 0-35.8 1.7-67.6 9.9-93.9 36.1s-34.4 58-36.2 93.9c-2.1 37-2.1 147.9 0 184.9 1.7 35.9 9.9 67.7 36.2 93.9s58 34.4 93.9 36.2c37 2.1 147.9 2.1 184.9 0 35.9-1.7 67.7-9.9 93.9-36.2 26.2-26.2 34.4-58 36.2-93.9 2.1-37 2.1-147.8 0-184.8zM398.8 388c-7.8 19.6-22.9 34.7-42.6 42.6-29.5 11.7-99.5 9-132.1 9s-102.7 2.6-132.1-9c-19.6-7.8-34.7-22.9-42.6-42.6-11.7-29.5-9-99.5-9-132.1s-2.6-102.7 9-132.1c7.8-19.6 22.9-34.7 42.6-42.6 29.5-11.7 99.5-9 132.1-9s102.7-2.6 132.1 9c19.6 7.8 34.7 22.9 42.6 42.6 11.7 29.5 9 99.5 9 132.1s2.7 102.7-9 132.1z"/>
</symbol>

<symbol id="facebook"  viewBox="0 0 512 512">
<path d="M512 256C512 114.6 397.4 0 256 0S0 114.6 0 256C0 376 82.7 476.8 194.2 504.5V334.2H141.4V256h52.8V222.3c0-87.1 39.4-127.5 125-127.5c16.2 0 44.2 3.2 55.7 6.4V172c-6-.6-16.5-1-29.6-1c-42 0-58.2 15.9-58.2 57.2V256h83.6l-14.4 78.2H287V510.1C413.8 494.8 512 386.9 512 256h0z"/>
</symbol>

<symbol id="phone"  viewBox="0 0 384 512">
<path d="M16 64C16 28.7 44.7 0 80 0H304c35.3 0 64 28.7 64 64V448c0 35.3-28.7 64-64 64H80c-35.3 0-64-28.7-64-64V64zM224 448a32 32 0 1 0 -64 0 32 32 0 1 0 64 0zM304 64H80V384H304V64z"/>
</symbol>

<symbol id="store"  viewBox="0 0 576 512">
<path d="M547.6 103.8L490.3 13.1C485.2 5 476.1 0 466.4 0H109.6C99.9 0 90.8 5 85.7 13.1L28.3 103.8c-29.6 46.8-3.4 111.9 51.9 119.4c4 .5 8.1 .8 12.1 .8c26.1 0 49.3-11.4 65.2-29c15.9 17.6 39.1 29 65.2 29c26.1 0 49.3-11.4 65.2-29c15.9 17.6 39.1 29 65.2 29c26.2 0 49.3-11.4 65.2-29c16 17.6 39.1 29 65.2 29c4.1 0 8.1-.3 12.1-.8c55.5-7.4 81.8-72.5 52.1-119.4zM499.7 254.9l-.1 0c-5.3 .7-10.7 1.1-16.2 1.1c-12.4 0-24.3-1.9-35.4-5.3V384H128V250.6c-11.2 3.5-23.2 5.4-35.6 5.4c-5.5 0-11-.4-16.3-1.1l-.1 0c-4.1-.6-8.1-1.3-12-2.3V384v64c0 35.3 28.7 64 64 64H448c35.3 0 64-28.7 64-64V384 252.6c-4 1-8 1.8-12.3 2.3z"/> 
</symbol>
<symbol id="location"  viewBox="0 0 384 512">
<path d="M215.7 499.2C267 435 384 279.4 384 192C384 86 298 0 192 0S0 86 0 192c0 87.4 117 243 168.3 307.2c12.3 15.3 35.1 15.3 47.4 0zM192 128a64 64 0 1 1 0 128 64 64 0 1 1 0-128z"/>
</symbol>

<symbol id="skype"  viewBox="0 0 448 512">
<path d="M424.7 299.8c2.9-14 4.7-28.9 4.7-43.8 0-113.5-91.9-205.3-205.3-205.3-14.9 0-29.7 1.7-43.8 4.7C161.3 40.7 137.7 32 112 32 50.2 32 0 82.2 0 144c0 25.7 8.7 49.3 23.3 68.2-2.9 14-4.7 28.9-4.7 43.8 0 113.5 91.9 205.3 205.3 205.3 14.9 0 29.7-1.7 43.8-4.7 19 14.6 42.6 23.3 68.2 23.3 61.8 0 112-50.2 112-112 .1-25.6-8.6-49.2-23.2-68.1zm-194.6 91.5c-65.6 0-120.5-29.2-120.5-65 0-16 9-30.6 29.5-30.6 31.2 0 34.1 44.9 88.1 44.9 25.7 0 42.3-11.4 42.3-26.3 0-18.7-16-21.6-42-28-62.5-15.4-117.8-22-117.8-87.2 0-59.2 58.6-81.1 109.1-81.1 55.1 0 110.8 21.9 110.8 55.4 0 16.9-11.4 31.8-30.3 31.8-28.3 0-29.2-33.5-75-33.5-25.7 0-42 7-42 22.5 0 19.8 20.8 21.8 69.1 33 41.4 9.3 90.7 26.8 90.7 77.6 0 59.1-57.1 86.5-112 86.5z"/>
</symbol>

<symbol id="linkedin-in"  viewBox="0 0 448 512">
<path d="M100.3 448H7.4V148.9h92.9zM53.8 108.1C24.1 108.1 0 83.5 0 53.8a53.8 53.8 0 0 1 107.6 0c0 29.7-24.1 54.3-53.8 54.3zM447.9 448h-92.7V302.4c0-34.7-.7-79.2-48.3-79.2-48.3 0-55.7 37.7-55.7 76.7V448h-92.8V148.9h89.1v40.8h1.3c12.4-23.5 42.7-48.3 87.9-48.3 94 0 111.3 61.9 111.3 142.3V448z"/>
</symbol>
 
<symbol id="tiktok"  viewBox="0 0 448 512">
<path d="M448 209.9a210.1 210.1 0 0 1 -122.8-39.3V349.4A162.6 162.6 0 1 1 185 188.3V278.2a74.6 74.6 0 1 0 52.2 71.2V0l88 0a121.2 121.2 0 0 0 1.9 22.2h0A122.2 122.2 0 0 0 381 102.4a121.4 121.4 0 0 0 67 20.1z"/>
</symbol>
</svg>
