   <svg xmlns="http://www.w3.org/2000/svg" xmlns:xlink="http://www.w3.org/1999/xlink" version="1.1" id="mySvg" x="0px"
      y="0px" width="303.167px" height="115.667px" viewBox="0 0 303.167 115.667"
      enable-background="new 0 0 303.167 115.667" xml:space="preserve">
      <g>
        <g class="firstPath">
          <path fill="#4D6466"
            d="M277.935,91.352c0,0.24-0.02,0.48-0.05,0.72v0.05c-0.05,0.48-0.15,0.94-0.29,1.39    c0,0.01-0.01,0.02-0.01,0.02c-0.44,1.47-1.31,2.76-2.5,3.7c-0.02,0.01-0.04,0.02-0.05,0.04c-0.15,0.1-0.3,0.2-0.45,0.31    c-0.08,0.06-0.16,0.11-0.25,0.16c-2.51,1.69-5.28,3.07-8.24,4.12c-12.38,4.38-24.8,4.18-36.88-0.94    c-12.09-5.12-19.15-14.69-21.87-27.34c-3.31-15.4-0.64-29.55,10.25-41.45c7.04-7.68,16.19-11.23,26.4-12.21    c11.21-1.08,21.28,1.37,30.03,7.74c0.32,0.23,0.64,0.47,0.95,0.71c1.41,1.23,2.32,2.98,2.43,4.94c0.02,0.18,0.02,0.36,0.02,0.54    c-0.06,3.68-2.83,6.79-6.69,7.09c-0.18,0.02-0.38,0.03-0.57,0.03c-1.41,0.01-2.73-0.38-3.85-1.06c-0.19-0.14-0.39-0.27-0.58-0.4    c-12.81-8.42-29.67-5.23-37.27,3.4c-9.35,10.61-9.47,28.75-0.1,39.22c7.39,8.26,24.26,11.69,37.38,3.18    c0.24-0.15,0.47-0.3,0.7-0.47c1.06-0.63,2.28-1.02,3.57-1.07c0.35-0.01,0.7-0.01,1.03,0.03c3.72,0.33,6.64,3.32,6.86,6.95    C277.935,90.952,277.935,91.152,277.935,91.352z" />
          <path fill="#4D6466"
            d="M24.974,22.654c1.301,2.337,2.602,4.674,3.903,7.01c-5.108,3.047-10.223,6.083-15.321,9.149    c-2.886,1.735-3.138,2.894-1.418,5.844c0.981,1.683,1.921,3.391,2.88,5.088c-2.54,1.457-5.081,2.915-7.621,4.373    c-1.649-2.737-3.388-5.426-4.927-8.224c-2.316-4.208-1.108-9.104,3.029-11.654C11.927,30.276,18.475,26.506,24.974,22.654z" />
          <path fill="#4D6466"
            d="M67.626,94.9c1.441,2.266,2.881,4.533,4.323,6.799c-6.419,3.82-12.811,7.689-19.269,11.445    c-4.332,2.519-9.247,1.288-11.882-2.909c-1.7-2.707-3.261-5.501-4.885-8.257c2.499-1.496,4.998-2.992,7.497-4.487    c1.062,1.728,2.118,3.46,3.188,5.183c1.618,2.606,2.824,2.934,5.452,1.398C57.251,101.03,62.435,97.958,67.626,94.9z" />
          <path fill="#4D6466"
            d="M174.284,59.677c-0.86,0.674-1.627,1.268-2.388,1.87c-4.306,3.407-8.615,6.81-12.908,10.233    c-0.347,0.276-0.493,0.061-0.709-0.112c-4.35-3.473-8.698-6.949-13.054-10.415c-5.396-4.294-10.796-8.581-16.204-12.859    c-0.312-0.247-0.393-0.484-0.37-0.876c0.302-5.03,4.574-8.616,9.532-8.301c1.795,0.114,3.409,0.787,4.821,1.901    c5.096,4.019,10.188,8.045,15.27,12.082c0.314,0.25,0.497,0.268,0.818,0.013c5.083-4.035,10.159-8.079,15.276-12.07    c2.799-2.183,5.93-2.587,9.16-1.137c3.062,1.374,4.844,3.818,5.14,7.198c0.235,2.688,0.056,5.391,0.084,8.087    c0.024,2.366,0.002,4.733,0.003,7.099c0.001,10.139-0.001,20.279,0.006,30.418c0.003,3.744-3.007,7.062-6.607,7.258    c-4.06,0.22-7.354-2.439-7.834-6.33c-0.03-0.242-0.035-0.489-0.035-0.734c-0.002-10.344-0.002-20.687-0.002-31.031    C174.284,61.257,174.284,60.544,174.284,59.677z" />
          <path fill="#4D6466"
            d="M128.592,25.366c-0.115-5.76,4.578-10.472,10.161-10.702c6.173-0.255,11.195,4.738,11.102,10.759    c-0.088,5.707-4.565,10.486-10.665,10.525C133.355,35.984,128.591,31.193,128.592,25.366z" />
        </g>
        <g class="secondPath">
          <path fill="#018BAA"
            d="M86.774,97.793c-0.81,0.7-1.71,1.3-2.5,2.03c-3.69,3.39-7.77,4.16-12.32,1.88    c-1.45-2.27-2.89-4.54-4.33-6.8c-0.07-4.29,1.86-7.32,5.32-9.89c11.5-8.53,14.75-22.28,8.55-36.23    c-4.68-10.52-11.95-18.44-23.63-21.18c-6.32-1.49-12.48-0.5-18.27,2.29c-3.71,1.79-7.19,1.84-10.72-0.23    c-1.3-2.34-2.6-4.67-3.9-7.01c0.07-4.45,2.01-7.53,6.18-9.44c22.88-10.54,45.65-4.84,60.8,15.3c0.58,0.78,1.19,1.53,1.81,2.3    c0.93,1.51,1.86,3.02,2.78,4.53c4.14,7.93,6.96,16.25,7.22,25.29C104.194,75.793,98.184,88.033,86.774,97.793z" />
          <path fill="#018BAA"
            d="M7.396,54.117c2.54-1.458,5.081-2.915,7.621-4.373c2.338,1.62,4.714,3.187,7.004,4.871    c3.65,2.684,4.986,6.877,3.468,10.569c-1.359,3.305-6.258,6.215-9.758,5.796c-4.074-0.488-6.983-3.513-7.566-8.092    C7.795,59.979,7.645,57.042,7.396,54.117z" />
          <path fill="#018BAA"
            d="M43.409,97.49c-2.499,1.496-4.998,2.991-7.497,4.487c-2.471-1.602-4.972-3.16-7.405-4.816    c-3.486-2.373-4.857-6.587-3.455-10.35c1.232-3.308,5.875-6.093,9.741-5.844c3.695,0.238,6.831,3.135,7.508,7.216    C42.812,91.262,43.05,94.386,43.409,97.49z" />
          <path fill="#018BAA"
            d="M128.644,74.476c0-5.128,0.004-10.256-0.002-15.385c-0.002-1.894-0.029-3.787-0.038-5.681    c-0.001-0.152-0.067-0.359,0.101-0.444c0.12-0.06,0.279,0.022,0.385,0.124c1.162,1.13,2.498,2.045,3.753,3.061    c2.065,1.673,4.119,3.359,6.186,5.03c1.183,0.957,2.374,1.904,3.575,2.837c0.368,0.286,0.534,0.603,0.533,1.085    c-0.013,9.339-0.005,18.678-0.014,28.017c-0.003,2.724-2.011,5.527-4.552,6.451c-2.522,0.917-4.932,0.667-7.076-0.916    c-1.922-1.419-2.87-3.409-2.86-5.85c0.023-6.11,0.008-12.22,0.008-18.331C128.641,74.476,128.643,74.476,128.644,74.476z" />
          <path fill="#018BAA"
            d="M180.113,35.914c-5.823-0.054-10.636-4.754-10.566-10.588c-0.113-5.909,4.829-10.657,10.598-10.684    c5.726-0.022,10.523,4.781,10.695,10.153C191.061,31.589,185.651,35.973,180.113,35.914z" />
          <path fill="#018BAA"
            d="M302.224,33.113c0,6.1-1.79,11.78-4.87,16.55c-2.34,3.61-5.42,6.71-9.04,9.05    c-4.78,3.11-10.49,4.92-16.61,4.92c-0.25,0-0.51,0-0.76-0.01v0.02h-7.01l-8.67,8.66l-0.82,0.83c-3.13,3.13-8.07,3.33-10.97,0.43    c-2.9-2.9-2.7-7.84,0.43-10.97l0.82-0.82l-0.82-0.83c-3.13-3.13-3.33-8.06-0.43-10.97c2.9-2.89,7.84-2.7,10.97,0.43l0.82,0.83    l7.48,7.48h7.47c0.24,0.01,0.49,0.03,0.73,0.04c0.25,0,0.51,0.01,0.76,0.01c0.5,0,0.99-0.02,1.48-0.05    c13.48-0.76,24.17-11.94,24.17-25.6c0-14.16-11.49-25.65-25.65-25.65h-16.55c-0.03,0-0.03,0-0.03,0    c-34.45,0.01-68.89,0.02-103.34,0.04c-22.56,0.01-40.86,8.94-54.53,27.06c-0.21,0.28-0.47,0.52-0.71,0.78    c-0.92-1.51-1.85-3.02-2.78-4.53c9.87-12.79,22.41-21.79,38.15-25.73c3.17-0.79,6.42-1.43,9.7-1.86c2.47-0.32,4.95-0.52,7.41-0.57    h124.57c0.31,0.02,0.62,0.04,0.92,0.07c0.43,0.04,0.85,0.09,1.27,0.15c0.23,0.03,0.45,0.06,0.67,0.09    c0.08,0.01,0.17,0.03,0.25,0.05c0.61,0.09,1.21,0.21,1.81,0.35c1.62,0.37,3.19,0.86,4.71,1.48c0.25,0.1,0.51,0.21,0.76,0.32    c0.5,0.22,0.99,0.46,1.49,0.71c0.32,0.16,0.63,0.32,0.94,0.5c0.31,0.17,0.62,0.35,0.93,0.53c0.3,0.18,0.6,0.37,0.9,0.56    c3.64,2.36,6.75,5.47,9.11,9.1C300.434,21.333,302.224,27.023,302.224,33.113z" />
        </g>
      </g>
    </svg>