<!DOCTYPE svg PUBLIC "-//W3C//DTD SVG 1.1//EN" "http://www.w3.org/Graphics/SVG/1.1/DTD/svg11.dtd">
<!-- Uploaded to: SVG Repo, www.svgrepo.com, Transformed by: SVG Repo Mixer Tools -->
<svg fill="#000000" width="800px" height="800px" viewBox="0 0 64 64" id="Layer_1_1_" version="1.1" xml:space="preserve" xmlns="http://www.w3.org/2000/svg" xmlns:xlink="http://www.w3.org/1999/xlink">
<g id="SVGRepo_bgCarrier" stroke-width="0"/>
<g id="SVGRepo_tracerCarrier" stroke-linecap="round" stroke-linejoin="round"/>
<g id="SVGRepo_iconCarrier"><g><path d="M 51.596 27.352 C 51.596 25.143 50.304 23.128 48.345 22.164 C 48.365 21.966 48.377 21.764 48.377 21.559 C 48.377 18.364 45.777 15.766 42.584 15.766 C 42.535 15.766 42.486 15.773 42.437 15.775 C 41.853 13.195 39.546 11.259 36.791 11.259 C 34.548 11.259 32.603 12.543 31.641 14.411 C 30.679 12.543 28.733 11.259 26.491 11.259 C 23.757 11.259 21.43 13.162 20.842 15.773 C 20.794 15.772 20.747 15.766 20.698 15.766 C 17.505 15.766 14.905 18.364 14.905 21.559 C 14.905 21.755 14.915 21.954 14.935 22.152 C 12.972 23.117 11.686 25.144 11.686 27.352 C 11.686 28.835 12.251 30.184 13.17 31.21 C 12.221 32.267 11.686 33.641 11.686 35.076 C 11.686 37.286 12.978 39.3 14.936 40.265 C 14.916 40.464 14.905 40.665 14.905 40.869 C 14.905 44.065 17.505 46.663 20.698 46.663 C 20.747 46.663 20.794 46.657 20.842 46.655 C 21.43 49.267 23.757 51.169 26.491 51.169 C 28.733 51.169 30.679 49.886 31.641 48.017 C 32.603 49.886 34.548 51.169 36.791 51.169 C 39.546 51.169 41.853 49.235 42.437 46.653 C 42.486 46.655 42.535 46.663 42.584 46.663 C 45.777 46.663 48.377 44.065 48.377 40.869 C 48.377 40.674 48.366 40.477 48.345 40.276 C 50.309 39.313 51.596 37.284 51.596 35.076 C 51.596 33.594 51.031 32.245 50.111 31.218 C 51.06 30.162 51.596 28.787 51.596 27.352 Z M 47.407 39.282 L 46.901 39.475 L 47.004 40.006 C 47.061 40.297 47.089 40.588 47.089 40.869 C 47.089 43.354 45.068 45.376 42.584 45.376 C 42.584 42.181 39.984 39.583 36.791 39.583 L 36.791 40.869 C 39.275 40.869 41.296 42.891 41.296 45.376 C 41.296 47.86 39.275 49.882 36.791 49.882 C 34.306 49.882 32.284 47.86 32.284 45.376 L 32.284 20.915 L 30.997 20.915 L 30.997 45.376 C 30.997 47.86 28.977 49.882 26.491 49.882 C 24.401 49.882 22.62 48.454 22.125 46.477 C 24.631 45.84 26.491 43.572 26.491 40.869 L 25.204 40.869 C 25.204 43.354 23.183 45.376 20.698 45.376 C 18.213 45.376 16.192 43.354 16.192 40.869 C 16.192 38.386 18.213 36.364 20.698 36.364 L 20.698 35.076 C 18.166 35.076 16.015 36.712 15.229 38.977 C 13.856 38.181 12.973 36.692 12.973 35.076 C 12.973 33.961 13.39 32.891 14.129 32.068 C 15.075 32.743 16.23 33.145 17.479 33.145 L 17.479 31.858 C 14.995 31.858 12.973 29.836 12.973 27.352 C 12.973 25.5 14.14 23.808 15.874 23.147 L 16.381 22.953 L 16.277 22.422 C 16.22 22.134 16.192 21.842 16.192 21.559 C 16.192 19.074 18.213 17.053 20.698 17.053 C 23.183 17.053 25.204 19.074 25.204 21.559 L 26.491 21.559 C 26.491 18.858 24.631 16.589 22.125 15.95 C 22.62 13.975 24.401 12.547 26.491 12.547 C 28.977 12.547 30.997 14.569 30.997 17.053 L 30.997 19.627 L 32.284 19.627 L 32.284 17.053 C 32.284 14.569 34.306 12.547 36.791 12.547 C 39.275 12.547 41.296 14.569 41.296 17.053 C 41.296 19.537 39.275 21.559 36.791 21.559 L 36.791 22.846 C 39.984 22.846 42.584 20.248 42.584 17.053 C 45.068 17.053 47.089 19.074 47.089 21.559 C 47.089 24.043 45.068 26.064 42.584 26.064 L 42.584 27.352 C 45.115 27.352 47.266 25.718 48.054 23.451 C 49.424 24.246 50.308 25.737 50.308 27.352 C 50.308 28.469 49.892 29.538 49.154 30.36 C 48.205 29.684 47.051 29.283 45.802 29.283 C 42.608 29.283 40.009 31.882 40.009 35.076 L 41.296 35.076 C 41.296 32.592 43.318 30.571 45.802 30.571 C 48.287 30.571 50.308 32.592 50.308 35.076 C 50.308 36.929 49.143 38.619 47.407 39.282 Z" style="fill: rgb(46, 58, 88);"></path><path d="M 39.231 16.406 L 40.544 16.406 C 40.544 14.597 39.072 13.126 37.264 13.126 L 37.264 14.438 C 38.347 14.438 39.231 15.321 39.231 16.406 Z" style="fill: rgb(87, 145, 178);"></path><path d="M 35.295 45.276 L 33.983 45.276 C 33.983 47.083 35.454 48.556 37.264 48.556 L 37.264 47.244 C 36.179 47.244 35.295 46.36 35.295 45.276 Z" style="fill: rgb(87, 145, 178);"></path><path d="M 46.449 36.745 L 46.449 38.059 C 48.258 38.059 49.729 36.587 49.729 34.777 L 48.417 34.777 C 48.417 35.864 47.534 36.745 46.449 36.745 Z" style="fill: rgb(87, 145, 178);"></path><path d="M 36.607 34.121 L 35.295 34.121 C 35.295 36.293 37.061 38.059 39.231 38.059 L 39.231 36.745 C 37.785 36.745 36.607 35.568 36.607 34.121 Z" style="fill: rgb(87, 145, 178);"></path><path d="M 37.919 24.936 L 37.919 23.624 C 35.748 23.624 33.983 25.39 33.983 27.56 L 35.295 27.56 C 35.295 26.112 36.473 24.936 37.919 24.936 Z" style="fill: rgb(87, 145, 178);"></path><path d="M 27.422 34.121 L 26.11 34.121 C 26.11 36.293 27.875 38.059 30.046 38.059 L 30.046 36.745 C 28.598 36.745 27.422 35.568 27.422 34.121 Z" style="fill: rgb(87, 145, 178);"></path><path d="M 37.264 28.215 L 35.951 28.215 C 35.951 30.388 37.716 32.153 39.887 32.153 L 39.887 30.841 C 38.441 30.841 37.264 29.664 37.264 28.215 Z" style="fill: rgb(87, 145, 178);"></path><path d="M 28.734 24.936 L 28.734 23.624 C 26.562 23.624 24.796 25.39 24.796 27.56 L 26.11 27.56 C 26.11 26.112 27.287 24.936 28.734 24.936 Z" style="fill: rgb(87, 145, 178);"></path><path d="M 20.205 33.465 L 21.516 33.465 C 21.516 32.018 22.693 30.841 24.14 30.841 L 24.14 29.528 C 21.971 29.528 20.205 31.294 20.205 33.465 Z" style="fill: rgb(87, 145, 178);"></path><path d="M 20.86 42.65 L 20.86 43.963 C 22.669 43.963 24.14 42.492 24.14 40.684 L 22.828 40.684 C 22.828 41.767 21.946 42.65 20.86 42.65 Z" style="fill: rgb(87, 145, 178);"></path><path d="M 14.299 26.904 L 15.611 26.904 C 15.611 25.819 16.495 24.936 17.58 24.936 L 17.58 23.624 C 15.772 23.624 14.299 25.095 14.299 26.904 Z" style="fill: rgb(87, 145, 178);"></path><path d="M 20.86 17.719 L 20.86 19.031 C 21.946 19.031 22.828 19.914 22.828 20.999 L 24.14 20.999 C 24.14 19.19 22.669 17.719 20.86 17.719 Z" style="fill: rgb(87, 145, 178);"></path><path d="M 26.767 13.126 L 26.767 14.438 C 27.851 14.438 28.734 15.321 28.734 16.406 L 30.046 16.406 C 30.046 14.597 28.575 13.126 26.767 13.126 Z" style="fill: rgb(87, 145, 178);"></path></g></g>
</svg>