<?xml version="1.0" encoding="UTF-8" standalone="no" ?>
<!DOCTYPE svg PUBLIC "-//W3C//DTD SVG 1.1//EN" "http://www.w3.org/Graphics/SVG/1.1/DTD/svg11.dtd">
<svg xmlns="http://www.w3.org/2000/svg" xmlns:xlink="http://www.w3.org/1999/xlink" version="1.1" width="1080" height="1080" viewBox="0 0 1080 1080" xml:space="preserve">
<desc>Created with Fabric.js 5.2.4</desc>
<defs>
</defs>
<rect x="0" y="0" width="100%" height="100%" fill="transparent"></rect>
<g transform="matrix(1 0 0 1 540 540)" id="4b1e7380-5776-43ee-a891-25ca82e15951"  >
<rect style="stroke: none; stroke-width: 1; stroke-dasharray: none; stroke-linecap: butt; stroke-dashoffset: 0; stroke-linejoin: miter; stroke-miterlimit: 4; fill: rgb(255,255,255); fill-rule: nonzero; opacity: 1; visibility: hidden;" vector-effect="non-scaling-stroke"  x="-540" y="-540" rx="0" ry="0" width="1080" height="1080" />
</g>
<g transform="matrix(1 0 0 1 540 540)" id="349fcda8-29ad-4f85-9568-10a562670895"  >
</g>
<g transform="matrix(1 0 0 1 540 540)"  >
<g style="" vector-effect="non-scaling-stroke"   >
		<g transform="matrix(57.14 0 0 57.14 -21.43 -29.46)"  >
<path style="stroke: none; stroke-width: 1; stroke-dasharray: none; stroke-linecap: round; stroke-dashoffset: 0; stroke-linejoin: miter; stroke-miterlimit: 1; fill: rgb(87,145,178); fill-rule: nonzero; opacity: 1;" vector-effect="non-scaling-stroke"  transform=" translate(-6.63, -6.48)" d="M 6.0625 7.0936824 C 6.0625 7.4561224 5.7686874999999995 7.7499324 5.40625 7.7499324 C 5.0438125 7.7499324 4.75 7.4561224 4.75 7.0936824 C 4.75 6.0598024 5.591125 5.2186824 6.625 5.2186824 C 7.658875 5.2186824 8.5 6.0598024 8.5 7.0936824 C 8.5 7.4561224 8.2061875 7.7499324 7.84375 7.7499324 C 7.4813125 7.7499324 7.1875 7.4561224 7.1875 7.0936824 C 7.1875 6.783512399999999 6.9351484 6.5311824 6.625 6.5311824 C 6.3148516 6.5311824 6.0625 6.783512399999999 6.0625 7.0936824 Z" stroke-linecap="round" />
</g>
		<g transform="matrix(57.14 0 0 57.14 -214.29 214.28)"  >
<path style="stroke: none; stroke-width: 40; stroke-dasharray: none; stroke-linecap: round; stroke-dashoffset: 0; stroke-linejoin: miter; stroke-miterlimit: 1; fill: rgb(46,58,88); fill-rule: nonzero; opacity: 1;" vector-effect="non-scaling-stroke"  transform=" translate(-3.25, -10.75)" d="M 4.585257800000001 11.289672 L 2.710257800000001 9.414672399999999 L 1.9147656000000008 10.210161999999999 L 3.789765600000001 12.085161999999999 L 4.585257800000001 11.289672 Z" stroke-linecap="round" />
</g>
		<g transform="matrix(57.14 0 0 57.14 194.82 -150.01)"  >
<path style="stroke: none; stroke-width: 40; stroke-dasharray: none; stroke-linecap: round; stroke-dashoffset: 0; stroke-linejoin: miter; stroke-miterlimit: 1; fill: rgb(46,58,88); fill-rule: nonzero; opacity: 1;" vector-effect="non-scaling-stroke"  transform=" translate(-10.41, -4.37)" d="M 13 7.0938424 C 13 7.0582424 12.999719 7.0229424 12.9989 6.9876524 C 12.95486 4.2934824 11.222385000000001 1.9015724 8.687314400000002 1.0353424000000002 C 8.344353400000001 0.9182024000000002 7.971322200000002 1.1011424000000003 7.854111300000001 1.4441424000000003 C 7.736923800000001 1.7871024000000002 7.919970300000001 2.1601324 8.2629081 2.2773424 C 10.276330000000002 2.9653324000000003 11.652205 4.8674924 11.686588 7.0106224 L 11.686658 7.0146223999999995 C 11.687268 7.0408224 11.687432 7.067022399999999 11.687432 7.0934224 C 11.687432 7.4558624 11.981244 7.7496724 12.343682 7.7496724 C 12.706119 7.7496724 12.999955 7.4558624 12.999955 7.0934224 L 13 7.0938424 Z" stroke-linecap="round" />
</g>
		<g transform="matrix(57.14 0 0 57.14 -300 300)"  >
<path style="stroke: none; stroke-width: 40; stroke-dasharray: none; stroke-linecap: round; stroke-dashoffset: 0; stroke-linejoin: miter; stroke-miterlimit: 1; fill: rgb(46,58,88); fill-rule: nonzero; opacity: 1;" vector-effect="non-scaling-stroke"  transform=" translate(-1.75, -12.25)" d="M 1.75 11.499932 C 1.3357891 11.499932 1 11.835721999999999 1 12.249932 C 1 12.664142 1.3357891 12.999932 1.75 12.999932 C 2.1642109 12.999932 2.5 12.664142 2.5 12.249932 C 2.5 11.835721999999999 2.1642109 11.499932 1.75 11.499932 Z" stroke-linecap="round" />
</g>
		<g transform="matrix(57.14 0 0 57.14 -128.57 128.57)"  >
<path style="stroke: none; stroke-width: 40; stroke-dasharray: none; stroke-linecap: round; stroke-dashoffset: 0; stroke-linejoin: miter; stroke-miterlimit: 1; fill: rgb(46,58,88); fill-rule: nonzero; opacity: 1;" vector-effect="non-scaling-stroke"  transform=" translate(-4.75, -9.25)" d="M 4.75 8.499932399999999 C 4.3357890999999995 8.499932399999999 4 8.835722399999998 4 9.249932399999999 C 4 9.6641424 4.3357890999999995 9.999932399999999 4.75 9.999932399999999 C 5.1642109000000005 9.999932399999999 5.5 9.6641424 5.5 9.249932399999999 C 5.5 8.835722399999998 5.1642109000000005 8.499932399999999 4.75 8.499932399999999 Z" stroke-linecap="round" />
</g>
		<g transform="matrix(57.14 0 0 57.14 -21.43 56.25)"  >
<path style="stroke: none; stroke-width: 0; stroke-dasharray: none; stroke-linecap: round; stroke-dashoffset: -50; stroke-linejoin: miter; stroke-miterlimit: 1; fill: rgb(87,145,178); fill-rule: nonzero; opacity: 1;" vector-effect="non-scaling-stroke"  transform=" translate(-6.63, -7.98)" d="M 6.625 2.9686823999999996 C 4.3504609 2.9686823999999996 2.5 4.8191424 2.5 7.0936824 C 2.5 7.4561224 2.7938125 7.7499324 3.15625 7.7499324 C 3.5186875 7.7499324 3.8125 7.4561224 3.8125 7.0936824 C 3.8125 5.542872399999999 5.0741875 4.2811824 6.625 4.2811824 C 8.1758125 4.2811824 9.4375 5.542872399999999 9.4375 7.0936824 C 9.4375 8.8553424 7.7732266 8.7415924 7.7500703 10.459821999999999 L 7.75 10.468822 C 7.75 11.140842 7.2032734 11.687572 6.53125 11.687572 C 6.1688125 11.687572 5.875 11.981382 5.875 12.343822 C 5.875 12.706261999999999 6.1688125000000005 13.000072 6.53125 13.000072 C 7.9251953 13.000072 9.0595938 11.867382 9.0625 10.474122 C 9.076445 9.6672124 10.75 9.3434924 10.75 7.0938224 C 10.75 4.8192824 8.8995391 2.9688223999999996 6.625 2.9688223999999996 L 6.625 2.9686823999999996 Z" stroke-linecap="round" />
</g>
</g>
</g>
</svg>