<?xml version="1.0" encoding="UTF-8" standalone="no" ?>
<!DOCTYPE svg PUBLIC "-//W3C//DTD SVG 1.1//EN" "http://www.w3.org/Graphics/SVG/1.1/DTD/svg11.dtd">
<svg xmlns="http://www.w3.org/2000/svg" xmlns:xlink="http://www.w3.org/1999/xlink" version="1.1" width="1080" height="1080" viewBox="0 0 1080 1080" xml:space="preserve">
<desc>Created with Fabric.js 5.2.4</desc>
<defs>
</defs>
<g transform="matrix(1 0 0 1 540 540)" id="fcd1a22c-3329-4751-a460-13ae16da00c8"  >
<rect style="stroke: none; stroke-width: 1; stroke-dasharray: none; stroke-linecap: butt; stroke-dashoffset: 0; stroke-linejoin: miter; stroke-miterlimit: 4; fill: rgb(255,255,255); fill-rule: nonzero; opacity: 1; visibility: hidden;" vector-effect="non-scaling-stroke"  x="-540" y="-540" rx="0" ry="0" width="1080" height="1080" />
</g>
<g transform="matrix(1 0 0 1 540 540)" id="6929fb47-9ab7-442c-9700-476fd4e77a91"  >
</g>
<g transform="matrix(0.74 0 0 0.74 540 540)"  >
<g style="" vector-effect="non-scaling-stroke"   >
		<g transform="matrix(0.83 0 0 0.83 -171.34 363.41)"  >
<path style="stroke: none; stroke-width: 1; stroke-dasharray: none; stroke-linecap: butt; stroke-dashoffset: 0; stroke-linejoin: miter; stroke-miterlimit: 4; fill: rgb(87,145,178); fill-rule: nonzero; opacity: 1;" vector-effect="non-scaling-stroke"  transform=" translate(-275.12, -918.52)" d="M 315.571 896.423 L 283.571 896.423 C 265.67100000000005 914.023 246.07100000000003 928.723 224.67100000000002 940.623 L 315.571 940.623 C 321.071 940.623 325.571 936.123 325.571 930.623 L 325.571 906.423 C 325.571 900.923 321.071 896.423 315.571 896.423 z" stroke-linecap="round" />
</g>
		<g transform="matrix(0.83 0 0 0.83 -32.58 363.41)"  >
<path style="stroke: none; stroke-width: 1; stroke-dasharray: none; stroke-linecap: butt; stroke-dashoffset: 0; stroke-linejoin: miter; stroke-miterlimit: 4; fill: rgb(87,145,178); fill-rule: nonzero; opacity: 1;" vector-effect="non-scaling-stroke"  transform=" translate(-442.07, -918.52)" d="M 503.071 896.423 L 381.071 896.423 C 375.571 896.423 371.071 900.923 371.071 906.423 L 371.071 930.623 C 371.071 936.123 375.571 940.623 381.071 940.623 L 503.071 940.623 C 508.571 940.623 513.071 936.123 513.071 930.623 L 513.071 906.423 C 513.071 900.923 508.571 896.423 503.071 896.423 z" stroke-linecap="round" />
</g>
		<g transform="matrix(0.83 0 0 0.83 123.25 363.41)"  >
<path style="stroke: none; stroke-width: 1; stroke-dasharray: none; stroke-linecap: butt; stroke-dashoffset: 0; stroke-linejoin: miter; stroke-miterlimit: 4; fill: rgb(87,145,178); fill-rule: nonzero; opacity: 1;" vector-effect="non-scaling-stroke"  transform=" translate(-629.57, -918.52)" d="M 690.571 896.423 L 568.571 896.423 C 563.071 896.423 558.571 900.923 558.571 906.423 L 558.571 930.623 C 558.571 936.123 563.071 940.623 568.571 940.623 L 690.571 940.623 C 696.071 940.623 700.571 936.123 700.571 930.623 L 700.571 906.423 C 700.571 900.923 696.071 896.423 690.571 896.423 z" stroke-linecap="round" />
</g>
		<g transform="matrix(0.83 0 0 0.83 279.09 363.41)"  >
<path style="stroke: none; stroke-width: 1; stroke-dasharray: none; stroke-linecap: butt; stroke-dashoffset: 0; stroke-linejoin: miter; stroke-miterlimit: 4; fill: rgb(87,145,178); fill-rule: nonzero; opacity: 1;" vector-effect="non-scaling-stroke"  transform=" translate(-817.07, -918.52)" d="M 878.071 896.423 L 756.071 896.423 C 750.571 896.423 746.071 900.923 746.071 906.423 L 746.071 930.623 C 746.071 936.123 750.571 940.623 756.071 940.623 L 878.071 940.623 C 883.571 940.623 888.071 936.123 888.071 930.623 L 888.071 906.423 C 888.071 900.923 883.571 896.423 878.071 896.423 z" stroke-linecap="round" />
</g>
		<g transform="matrix(0.83 0 0 0.83 -221.61 220.33)"  >
<path style="stroke: none; stroke-width: 1; stroke-dasharray: none; stroke-linecap: butt; stroke-dashoffset: 0; stroke-linejoin: miter; stroke-miterlimit: 4; fill: rgb(87,145,178); fill-rule: nonzero; opacity: 1;" vector-effect="non-scaling-stroke"  transform=" translate(-214.64, -746.37)" d="M 316.171 792.324 C 382.272 663.924 402.772 630.0229999999999 429.272 610.824 L 370.572 552.1239999999999 L 1.47199999999998 921.2239999999999 C -1.2280000000000202 923.924 -0.02800000000002001 928.5239999999999 3.57199999999998 929.5239999999999 C 17.17199999999998 933.4239999999999 47.17199999999998 940.6249999999999 84.57199999999997 940.6249999999999 C 114.37199999999997 940.6249999999999 148.87199999999996 936.0239999999999 183.57199999999997 921.7249999999999 C 198.87199999999999 915.425 214.27199999999996 907.1249999999999 229.272 896.5249999999999 C 261.071 873.824 291.271 840.624 316.171 792.324 z" stroke-linecap="round" />
</g>
		<g transform="matrix(0.83 0 0 0.83 154.83 -136.64)"  >
<path style="stroke: none; stroke-width: 1; stroke-dasharray: none; stroke-linecap: butt; stroke-dashoffset: 0; stroke-linejoin: miter; stroke-miterlimit: 4; fill: rgb(46,58,88); fill-rule: nonzero; opacity: 1;" vector-effect="non-scaling-stroke"  transform=" translate(-667.56, -316.87)" d="M 901.371 37.624 C 890.871 27.124000000000002 877.1709999999999 21.924000000000003 863.472 21.924000000000003 C 849.7719999999999 21.924000000000003 836.072 27.124000000000002 825.6709999999999 37.624 L 377.3709999999999 485.92400000000004 C 370.9719999999999 492.324 370.9719999999999 502.72400000000005 377.3709999999999 509.124 L 404.7709999999999 536.523 L 450.5709999999999 490.723 L 581.4709999999999 359.823 L 687.4709999999999 253.82299999999998 C 688.1699999999998 253.123 688.7709999999998 252.52299999999997 689.4709999999999 252.02299999999997 C 689.5709999999999 251.92299999999997 689.7709999999998 251.82299999999998 689.8699999999999 251.72299999999996 C 690.1699999999998 251.42299999999994 690.5699999999999 251.22299999999996 690.9709999999999 250.92299999999994 C 701.8699999999999 243.12299999999993 716.9709999999999 244.12299999999993 726.7709999999998 253.82299999999995 L 730.6699999999998 257.72299999999996 C 739.2709999999998 266.323 741.0699999999998 279.323 735.9709999999999 289.72299999999996 C 734.6699999999998 292.323 732.8699999999999 294.823 730.6699999999998 297.02299999999997 L 589.3699999999999 438.22299999999996 L 491.26999999999987 536.324 L 447.96999999999986 579.6239999999999 L 475.36899999999986 607.0229999999999 C 478.56899999999985 610.223 482.76899999999983 611.824 486.96999999999986 611.824 C 491.16899999999987 611.824 495.36899999999986 610.223 498.5699999999999 607.0229999999999 L 946.8699999999999 158.7229999999999 C 967.7699999999999 137.8229999999999 967.7699999999999 103.9229999999999 946.8699999999999 83.0229999999999 L 901.371 37.624 z" stroke-linecap="round" />
</g>
</g>
</g>
</svg>